<svg width="24" height="24" viewBox="0 0 24 25" fill="none" xmlns="http://www.w3.org/2000/svg">
<path fill-rule="evenodd" clip-rule="evenodd" d="M15.9484 13.8469C15.3954 13.8469 14.9434 13.3999 14.9434 12.8469C14.9434 12.2939 15.3864 11.8469 15.9384 11.8469H15.9484C16.5014 11.8469 16.9484 12.2939 16.9484 12.8469C16.9484 13.3999 16.5014 13.8469 15.9484 13.8469Z" fill="black"/>
<path fill-rule="evenodd" clip-rule="evenodd" d="M11.9386 13.8469C11.3856 13.8469 10.9346 13.3999 10.9346 12.8469C10.9346 12.2939 11.3766 11.8469 11.9296 11.8469H11.9386C12.4916 11.8469 12.9386 12.2939 12.9386 12.8469C12.9386 13.3999 12.4916 13.8469 11.9386 13.8469Z" fill="black"/>
<path fill-rule="evenodd" clip-rule="evenodd" d="M7.9298 13.8469C7.3768 13.8469 6.9248 13.3999 6.9248 12.8469C6.9248 12.2939 7.3678 11.8469 7.9208 11.8469H7.9298C8.4828 11.8469 8.9298 12.2939 8.9298 12.8469C8.9298 13.3999 8.4828 13.8469 7.9298 13.8469Z" fill="black"/>
</svg>
