<svg width="206" height="auto" viewBox="0 0 206 60" fill="none" xmlns="http://www.w3.org/2000/svg">
<path d="M34.9439 6.99706V9.52666H20.8252V46H14.2659V9.52666H0.147145V6.99706H34.9439ZM45.6212 15.3212H46.533L47.3272 21.4687C47.7978 20.5667 48.3861 19.7431 49.092 18.998C49.7979 18.2528 50.5725 17.6057 51.4157 17.0566C52.2785 16.5076 53.1806 16.086 54.1218 15.7918C55.0827 15.4781 56.0533 15.3212 57.0338 15.3212C57.9162 15.3212 58.779 15.4389 59.6222 15.6742C60.485 15.9095 61.289 16.2821 62.0342 16.7919L60.1517 21.8217C59.7595 21.3903 59.3477 21.0471 58.9163 20.7922C58.4849 20.5177 58.0437 20.3118 57.5926 20.1745C57.1416 20.0176 56.6808 19.9196 56.2102 19.8804C55.7396 19.8412 55.2689 19.8216 54.7983 19.8216C54.0532 19.8216 53.3178 19.9294 52.5923 20.1451C51.8863 20.3608 51.2098 20.6844 50.5627 21.1158C49.9156 21.5276 49.3175 22.0668 48.7685 22.7335C48.2194 23.3806 47.739 24.1454 47.3272 25.0278V46H41.3561V16.9684L45.6212 15.3212ZM67.8875 17.0272L72.0937 15.3212H73.8292V46H67.8875V17.0272ZM67.4169 4.3498C67.4169 3.87918 67.5052 3.43797 67.6816 3.02617C67.8581 2.61438 68.1032 2.25161 68.417 1.93786C68.7307 1.62411 69.0935 1.37899 69.5053 1.20251C69.9171 1.02602 70.3583 0.937781 70.8289 0.937781C71.2996 0.937781 71.7408 1.02602 72.1526 1.20251C72.5644 1.37899 72.9271 1.62411 73.2409 1.93786C73.5546 2.25161 73.7998 2.61438 73.9762 3.02617C74.1527 3.43797 74.241 3.87918 74.241 4.3498C74.241 4.82043 74.1527 5.26164 73.9762 5.67343C73.7998 6.08523 73.5546 6.448 73.2409 6.76175C72.9271 7.0755 72.5644 7.32061 72.1526 7.4971C71.7408 7.67358 71.2996 7.76182 70.8289 7.76182C70.3583 7.76182 69.9171 7.67358 69.5053 7.4971C69.0935 7.32061 68.7307 7.0755 68.417 6.76175C68.1032 6.448 67.8581 6.08523 67.6816 5.67343C67.5052 5.26164 67.4169 4.82043 67.4169 4.3498ZM89.1244 15.3212H90.8304V22.0864C91.4383 21.3217 92.1051 20.5373 92.8306 19.7333C93.5758 18.9293 94.3895 18.2038 95.272 17.5567C96.174 16.89 97.1643 16.3507 98.2428 15.9389C99.3213 15.5271 100.498 15.3212 101.772 15.3212C103.557 15.3212 105.175 15.6938 106.626 16.4389C108.077 17.1841 109.312 18.194 110.332 19.4686C111.371 20.7432 112.165 22.2433 112.714 23.9689C113.283 25.6749 113.567 27.4986 113.567 29.4399C113.567 31.9303 113.224 34.2344 112.538 36.3522C111.852 38.4504 110.871 40.2643 109.597 41.7938C108.322 43.3233 106.773 44.5195 104.949 45.3823C103.125 46.2255 101.086 46.6471 98.831 46.6471C98.0075 46.6471 97.2329 46.5981 96.5073 46.5C95.8014 46.4216 95.1249 46.2941 94.4778 46.1177C93.8503 45.9412 93.2326 45.7157 92.6247 45.4411C92.0364 45.1666 91.4383 44.8332 90.8304 44.4411V58.6774H84.83V16.9978L89.1244 15.3212ZM90.8304 37.8817C90.8304 38.7838 91.0265 39.6368 91.4187 40.4408C91.8109 41.2251 92.36 41.9213 93.0659 42.5292C93.7718 43.1174 94.615 43.5881 95.5955 43.941C96.576 44.2744 97.6545 44.4411 98.831 44.4411C99.9488 44.4411 100.998 44.1567 101.978 43.5881C102.978 43.0194 103.841 42.2154 104.567 41.1761C105.312 40.1172 105.89 38.8622 106.302 37.4111C106.734 35.96 106.949 34.3521 106.949 32.5872C106.949 30.3714 106.753 28.4399 106.361 26.7927C105.969 25.1259 105.42 23.7434 104.714 22.6453C104.028 21.5472 103.204 20.7236 102.243 20.1745C101.302 19.6255 100.263 19.3509 99.1252 19.3509C98.2624 19.3509 97.429 19.4882 96.625 19.7627C95.8406 20.0176 95.0955 20.3706 94.3895 20.8216C93.6836 21.2726 93.0267 21.7923 92.4188 22.3806C91.8305 22.9689 91.3011 23.5865 90.8304 24.2337V37.8817ZM128.127 46H122.127V2.232L126.392 0.525985H128.127V46ZM152.6 46.6471C150.286 46.6471 148.158 46.2451 146.217 45.4411C144.276 44.6372 142.599 43.5488 141.187 42.1762C139.775 40.7839 138.667 39.1662 137.863 37.3229C137.079 35.46 136.687 33.4696 136.687 31.3518C136.687 29.136 137.079 27.0574 137.863 25.1161C138.667 23.1551 139.775 21.4491 141.187 19.998C142.599 18.547 144.276 17.4096 146.217 16.586C148.158 15.7428 150.286 15.3212 152.6 15.3212C154.894 15.3212 157.002 15.7036 158.924 16.4684C160.865 17.2331 162.542 18.2822 163.954 19.6157C165.365 20.9491 166.464 22.5178 167.248 24.3219C168.052 26.1063 168.454 28.0281 168.454 30.087C168.454 32.3617 168.052 34.5089 167.248 36.5287C166.464 38.5288 165.365 40.2839 163.954 41.7938C162.542 43.2841 160.865 44.4705 158.924 45.3529C157.002 46.2157 154.894 46.6471 152.6 46.6471ZM153.747 44.4411C154.924 44.4411 156.002 44.1371 156.982 43.5292C157.963 42.9213 158.806 42.1075 159.512 41.0879C160.218 40.0486 160.767 38.8524 161.159 37.4994C161.551 36.1463 161.748 34.7148 161.748 33.2049C161.748 31.0283 161.561 28.9889 161.189 27.0868C160.816 25.1847 160.208 23.5277 159.365 22.1158C158.522 20.704 157.424 19.596 156.071 18.7921C154.718 17.9685 153.07 17.5567 151.129 17.5567C150.129 17.5567 149.158 17.8508 148.217 18.4391C147.276 19.0078 146.442 19.7921 145.717 20.7922C145.011 21.7923 144.442 22.9689 144.011 24.3219C143.58 25.6553 143.364 27.077 143.364 28.5869C143.364 30.7832 143.589 32.8421 144.04 34.7639C144.511 36.6856 145.187 38.3622 146.07 39.7936C146.972 41.2251 148.06 42.3625 149.335 43.2057C150.629 44.0293 152.1 44.4411 153.747 44.4411ZM205.31 17.4684V19.998H199.603C200.172 20.802 200.633 21.7237 200.986 22.763C201.358 23.7826 201.545 24.7925 201.545 25.7926C201.545 27.3613 201.202 28.783 200.515 30.0576C199.829 31.3322 198.868 32.4303 197.633 33.352C196.417 34.2736 194.956 34.9894 193.25 35.4992C191.544 35.9894 189.661 36.2346 187.602 36.2346C186.838 36.2346 186.053 36.1757 185.249 36.0581C184.465 35.9404 183.779 35.7835 183.19 35.5875C182.622 36.0581 182.141 36.6071 181.749 37.2346C181.357 37.8425 181.161 38.4602 181.161 39.0877C181.161 39.6956 181.484 40.176 182.131 40.529C182.798 40.882 183.739 41.0879 184.955 41.1467L196.074 41.6467C197.858 41.7252 199.339 41.9409 200.515 42.2938C201.711 42.6272 202.662 43.088 203.368 43.6763C204.074 44.245 204.574 44.9215 204.868 45.7059C205.163 46.4902 205.31 47.3727 205.31 48.3531C205.31 50.0983 204.898 51.6769 204.074 53.0888C203.27 54.5202 202.104 55.736 200.574 56.7361C199.044 57.7362 197.172 58.5107 194.956 59.0598C192.76 59.6089 190.269 59.8834 187.485 59.8834C184.994 59.8834 182.818 59.7363 180.955 59.4422C179.092 59.148 177.543 58.7264 176.307 58.1774C175.072 57.6479 174.15 57.0008 173.543 56.2361C172.935 55.4909 172.631 54.6477 172.631 53.7065C172.631 52.8829 172.837 52.0887 173.248 51.3239C173.66 50.5788 174.19 49.8532 174.837 49.1473C175.484 48.461 176.2 47.7943 176.984 47.1471C177.768 46.5 178.543 45.8823 179.308 45.2941C178.759 45.1176 178.239 44.9117 177.749 44.6764C177.278 44.4214 176.866 44.1371 176.513 43.8234C176.16 43.5096 175.886 43.1763 175.69 42.8233C175.494 42.4507 175.396 42.0585 175.396 41.6467C175.396 41.0388 175.553 40.4113 175.866 39.7642C176.2 39.0975 176.641 38.47 177.19 37.8817C177.759 37.2739 178.406 36.7248 179.131 36.2346C179.876 35.7247 180.671 35.3227 181.514 35.0286C179.494 34.1658 177.906 32.9696 176.749 31.4401C175.611 29.8909 175.043 28.1163 175.043 26.1161C175.043 24.6454 175.376 23.2532 176.043 21.9394C176.729 20.6255 177.67 19.4784 178.866 18.4979C180.063 17.5175 181.455 16.7429 183.043 16.1742C184.651 15.6056 186.387 15.3212 188.25 15.3212C189.152 15.3212 190.034 15.38 190.897 15.4977C191.779 15.6154 192.593 15.7722 193.338 15.9683C194.103 16.1644 194.77 16.3899 195.338 16.6448C195.927 16.8998 196.387 17.1743 196.721 17.4684H205.31ZM181.161 45.7647C180.71 46.098 180.318 46.4706 179.984 46.8824C179.651 47.2942 179.367 47.7256 179.131 48.1766C178.896 48.6276 178.719 49.0787 178.602 49.5297C178.484 50.0003 178.425 50.4415 178.425 50.8533C178.425 51.52 178.661 52.1573 179.131 52.7652C179.602 53.3731 180.308 53.9124 181.249 54.383C182.19 54.8536 183.367 55.2262 184.779 55.5007C186.21 55.7752 187.867 55.9125 189.75 55.9125C191.75 55.9125 193.534 55.7556 195.103 55.4419C196.691 55.1281 198.035 54.7065 199.133 54.1771C200.25 53.6672 201.094 53.0888 201.662 52.4417C202.251 51.8142 202.545 51.1769 202.545 50.5298C202.545 49.863 202.368 49.2846 202.015 48.7943C201.682 48.3041 201.192 47.9021 200.545 47.5884C199.897 47.2746 199.113 47.0393 198.191 46.8824C197.27 46.7255 196.231 46.6471 195.074 46.6471C193.623 46.6471 192.162 46.6079 190.691 46.5295C189.22 46.4706 187.848 46.3922 186.573 46.2941C185.298 46.2157 184.181 46.1177 183.22 46C182.259 45.902 181.573 45.8235 181.161 45.7647ZM188.603 34.6756C189.446 34.6756 190.26 34.4893 191.044 34.1168C191.828 33.7246 192.515 33.1951 193.103 32.5284C193.711 31.8617 194.191 31.0871 194.544 30.2047C194.897 29.3027 195.074 28.332 195.074 27.2927C195.074 25.822 194.868 24.4592 194.456 23.2042C194.064 21.9296 193.524 20.8314 192.838 19.9098C192.152 18.9686 191.348 18.2332 190.426 17.7037C189.505 17.1743 188.534 16.9096 187.514 16.9096C186.514 16.9096 185.642 17.1155 184.896 17.5273C184.171 17.9391 183.573 18.5175 183.102 19.2627C182.631 19.9882 182.279 20.851 182.043 21.8511C181.827 22.8316 181.72 23.8905 181.72 25.0278C181.72 26.3809 181.886 27.6457 182.22 28.8222C182.553 29.9988 183.024 31.0283 183.632 31.9107C184.239 32.7735 184.965 33.45 185.808 33.9403C186.651 34.4305 187.583 34.6756 188.603 34.6756Z" fill="#19191B"/>
</svg>
